<?xml version="1.0" encoding="UTF-8"?>
<svg id="Livello_2" data-name="Livello 2" xmlns="http://www.w3.org/2000/svg" viewBox="0 0 231.79 73.99">
  <defs>
    <style>
      .cls-1 {
        fill: #1c4281;
      }

      .cls-2 {
        fill: #b2c741;
        fill-rule: evenodd;
      }
    </style>
  </defs>
  <g id="Layer_1" data-name="Layer 1">
    <g>
      <polygon class="cls-1" points="79.13 55.74 79.13 17.13 105.65 17.13 105.65 23.63 86.91 23.63 86.91 32.84 103.08 32.84 103.08 39.34 86.91 39.34 86.91 55.74 79.13 55.74"/>
      <path class="cls-1" d="M108.89,41.36c0-2.45.61-4.82,1.82-7.12,1.21-2.29,2.93-4.04,5.15-5.25,2.22-1.21,4.7-1.81,7.44-1.81,4.23,0,7.7,1.37,10.4,4.11,2.7,2.74,4.05,6.2,4.05,10.39s-1.37,7.72-4.09,10.5c-2.73,2.78-6.17,4.16-10.31,4.16-2.56,0-5.01-.58-7.33-1.73-2.33-1.16-4.1-2.85-5.31-5.08-1.21-2.23-1.82-4.95-1.82-8.16M116.45,41.76c0,2.76.66,4.87,1.98,6.34,1.32,1.47,2.94,2.2,4.87,2.2s3.55-.73,4.86-2.2c1.31-1.47,1.96-3.6,1.96-6.39s-.66-4.82-1.96-6.28c-1.31-1.47-2.93-2.2-4.86-2.2s-3.56.73-4.87,2.2c-1.32,1.47-1.98,3.58-1.98,6.34"/>
      <path class="cls-1" d="M168.93,55.74h-7.4v-14.24c0-3.01-.16-4.96-.47-5.85-.31-.88-.82-1.57-1.52-2.06-.7-.49-1.55-.74-2.54-.74-1.27,0-2.41.35-3.41,1.05-1.01.7-1.7,1.63-2.07,2.79-.37,1.16-.56,3.29-.56,6.41v12.64h-7.4v-27.95h6.87v4.1c2.43-3.14,5.48-4.71,9.16-4.71,1.62,0,3.11.29,4.45.88,1.34.59,2.36,1.34,3.05,2.25.69.91,1.17,1.95,1.44,3.1.27,1.16.41,2.81.41,4.97v17.35Z"/>
      <path class="cls-1" d="M189.38,27.78v5.89h-5.06v11.26c0,2.28.05,3.61.14,3.99.09.38.31.69.65.93.34.25.75.37,1.23.37.67,0,1.65-.24,2.93-.71l.64,5.73c-1.71.73-3.64,1.1-5.8,1.1-1.32,0-2.52-.22-3.58-.67-1.06-.45-1.84-1.02-2.34-1.74-.5-.71-.84-1.67-1.03-2.88-.16-.86-.23-2.59-.23-5.21v-12.17h-3.4v-5.89h3.4v-5.51l7.4-4.31v9.82h5.06Z"/>
      <path class="cls-1" d="M210.65,46.82l7.33,1.21c-.95,2.71-2.44,4.77-4.48,6.19-2.04,1.42-4.6,2.12-7.66,2.12-4.85,0-8.45-1.58-10.78-4.75-1.84-2.54-2.76-5.74-2.76-9.62,0-4.62,1.21-8.24,3.63-10.86,2.42-2.62,5.47-3.93,9.17-3.93,4.15,0,7.43,1.37,9.83,4.11,2.4,2.74,3.55,6.93,3.44,12.59h-18.51c.05,2.19.65,3.9,1.8,5.12,1.15,1.22,2.57,1.83,4.28,1.83,1.16,0,2.14-.32,2.93-.95.79-.63,1.39-1.65,1.8-3.06M211.03,39.34c-.05-2.12-.61-3.73-1.66-4.84-1.05-1.11-2.33-1.66-3.84-1.66-1.61,0-2.95.58-4,1.75-1.05,1.17-1.57,2.75-1.55,4.75h11.05Z"/>
      <rect class="cls-1" x="224.38" y="17.13" width="7.4" height="38.6"/>
      <path class="cls-2" d="M19.9,44.9c0,2.77,2.15,5.02,4.79,5.02s4.79-2.25,4.79-5.02-2.15-5.02-4.79-5.02-4.79,2.25-4.79,5.02"/>
      <path class="cls-2" d="M41.45,48.14c-.19,2.77,1.8,5.16,4.44,5.34,2.64.18,4.94-1.92,5.12-4.68.19-2.77-1.8-5.16-4.44-5.34-2.64-.18-4.94,1.92-5.12,4.68"/>
      <path class="cls-2" d="M31.35,56.7c-.16,2.39,1.65,4.47,4.04,4.63,2.39.16,4.47-1.65,4.63-4.04.16-2.4-1.65-4.47-4.04-4.63-2.4-.16-4.47,1.65-4.63,4.04"/>
      <path class="cls-2" d="M28.26,63.58c-.71-1.43-2.46-2.01-3.89-1.3-1.43.72-2.01,2.46-1.3,3.89.72,1.43,2.46,2.01,3.89,1.3,1.43-.71,2.01-2.46,1.3-3.89"/>
      <path class="cls-2" d="M17.81,70.84c-.54-1.07-1.84-1.51-2.92-.97-1.07.54-1.51,1.84-.97,2.91.54,1.08,1.84,1.51,2.92.97,1.07-.53,1.51-1.84.97-2.92"/>
      <path class="cls-2" d="M48.18,32.84c2.75.33,5.24-1.54,5.55-4.16.32-2.63-1.66-5.03-4.42-5.36-2.75-.33-5.24,1.53-5.56,4.16-.31,2.63,1.66,5.03,4.42,5.35"/>
      <path class="cls-2" d="M56.22,43.36c2.38.28,4.55-1.42,4.83-3.8.28-2.38-1.42-4.55-3.8-4.83-2.39-.28-4.55,1.42-4.83,3.8-.28,2.39,1.42,4.55,3.8,4.83"/>
      <path class="cls-2" d="M62.93,46.8c-1.46.64-2.13,2.35-1.49,3.82.64,1.47,2.35,2.14,3.82,1.5,1.47-.64,2.14-2.35,1.49-3.82-.64-1.47-2.35-2.13-3.82-1.49"/>
      <path class="cls-2" d="M69.65,57.61c-1.1.48-1.6,1.76-1.12,2.86.48,1.1,1.76,1.6,2.86,1.12,1.1-.48,1.6-1.76,1.12-2.86-.48-1.1-1.76-1.6-2.86-1.12"/>
      <path class="cls-2" d="M33.44,25.06c.27-2.76-1.64-5.21-4.27-5.47-2.64-.26-4.99,1.77-5.27,4.52-.27,2.76,1.64,5.21,4.28,5.47,2.63.26,4.99-1.76,5.26-4.52"/>
      <path class="cls-2" d="M43.8,16.8c.24-2.39-1.51-4.52-3.9-4.75-2.39-.24-4.52,1.51-4.75,3.9-.24,2.39,1.51,4.52,3.9,4.76,2.39.24,4.52-1.51,4.75-3.9"/>
      <path class="cls-2" d="M47.1,10.03c.67,1.45,2.39,2.09,3.85,1.42,1.45-.67,2.09-2.39,1.42-3.85-.67-1.46-2.39-2.09-3.85-1.42-1.45.67-2.09,2.39-1.41,3.85"/>
      <path class="cls-2" d="M57.77,3.09c.5,1.09,1.79,1.57,2.88,1.06,1.09-.5,1.57-1.8,1.06-2.88-.5-1.09-1.8-1.57-2.89-1.06s-1.57,1.8-1.06,2.89"/>
      <path class="cls-2" d="M16.77,29.92c-2.39-.24-4.52,1.5-4.76,3.89-.24,2.39,1.5,4.52,3.89,4.76,2.39.24,4.52-1.5,4.77-3.89.24-2.39-1.5-4.52-3.89-4.76"/>
      <path class="cls-2" d="M10,26.61c1.45-.67,2.09-2.39,1.42-3.84-.67-1.46-2.39-2.09-3.84-1.43-1.46.67-2.09,2.39-1.43,3.85.67,1.45,2.39,2.09,3.84,1.42"/>
      <path class="cls-2" d="M3.08,15.92c1.09-.5,1.57-1.79,1.07-2.88-.5-1.09-1.79-1.57-2.88-1.07-1.09.5-1.57,1.79-1.07,2.88.5,1.09,1.79,1.57,2.88,1.07"/>
    </g>
  </g>
</svg>